<svg width="40" height="40" viewBox="0 0 40 40" fill="none" xmlns="http://www.w3.org/2000/svg">
<g clip-path="url(#clip0_7_2)">
<path d="M3.91502 17.5406C3.75256 16.9345 3.75254 16.2962 3.91495 15.6901C4.07737 15.0839 4.39649 14.5312 4.84025 14.0875L14.0871 4.84051C14.5308 4.39675 15.0835 4.07762 15.6897 3.91521C16.2958 3.75279 16.9341 3.75281 17.5402 3.91527L26.193 6.2338C26.283 5.04839 26.6957 3.9102 27.3864 2.94251L16.9648 0.150309C16.2167 -0.0501072 15.4291 -0.0501031 14.6811 0.150322C13.9331 0.350748 13.251 0.744534 12.7034 1.2921L1.29209 12.7035C0.744522 13.2512 0.350742 13.9332 0.15032 14.6813C-0.0501023 15.4293 -0.0501067 16.2169 0.150307 16.965L3.04989 27.7864C3.99778 27.0625 5.1263 26.6129 6.31228 26.4868L3.91502 17.5406Z" fill="url(#paint0_linear_7_2)"/>
<path d="M33.6076 13.2141L36.0849 22.4593C36.2474 23.0656 36.2472 23.7037 36.0849 24.3098C35.9224 24.916 35.6032 25.4687 35.1595 25.9124L25.9126 35.1596C25.4689 35.6034 24.9162 35.9223 24.31 36.0849C23.7039 36.2472 23.0656 36.2472 22.4595 36.0849L13.5134 33.6876C13.3873 34.8736 12.9378 36.0022 12.2139 36.95L23.0352 39.8496C23.7831 40.0501 24.5708 40.0501 25.3187 39.8496C26.0669 39.6491 26.7489 39.2555 27.2966 38.7078L38.7079 27.2964C39.2555 26.7487 39.6491 26.0667 39.8496 25.3185C40.0501 24.5706 40.0501 23.7829 39.8496 23.035L36.8407 11.8084C35.9129 12.5657 34.7941 13.0521 33.6076 13.2141Z" fill="url(#paint1_linear_7_2)"/>
<path d="M3.31025 29.2788C2.57738 30.0116 2.07829 30.9455 1.87609 31.9619C1.67389 32.9785 1.77766 34.0322 2.17428 34.9898C2.57089 35.9471 3.24255 36.7656 4.10429 37.3415C4.96605 37.9171 5.97918 38.2246 7.01561 38.2246C8.05202 38.2246 9.06517 37.9171 9.92691 37.3415C10.7887 36.7656 11.4603 35.9471 11.8569 34.9898C12.2536 34.0322 12.3573 32.9785 12.1551 31.9619C11.9529 30.9455 11.4538 30.0116 10.721 29.2788C9.73748 28.2976 8.40491 27.7465 7.01561 27.7465C5.62631 27.7465 4.29374 28.2976 3.31025 29.2788Z" fill="url(#paint2_linear_7_2)"/>
<path d="M29.0074 3.03995C28.2747 3.77281 27.7754 4.70653 27.5734 5.72306C27.3712 6.73956 27.4749 7.79322 27.8715 8.75076C28.2682 9.70829 28.9397 10.5267 29.8014 11.1025C30.6633 11.6784 31.6764 11.9857 32.7127 11.9857C33.7492 11.9857 34.7623 11.6784 35.6242 11.1025C36.4859 10.5267 37.1574 9.70829 37.5541 8.75076C37.9507 7.79322 38.0545 6.73956 37.8522 5.72306C37.6502 4.70653 37.1509 3.77281 36.4182 3.03995C35.4348 2.05866 34.1021 1.50757 32.7127 1.50757C31.3236 1.50757 29.9908 2.05866 29.0074 3.03995Z" fill="url(#paint3_linear_7_2)"/>
</g>
<defs>
<linearGradient id="paint0_linear_7_2" x1="13.6932" y1="-1.24316e-08" x2="13.6932" y2="27.7864" gradientUnits="userSpaceOnUse">
<stop stop-color="#7421CF"/>
<stop offset="0.395833" stop-color="#911BB6"/>
<stop offset="0.760417" stop-color="#971AB2"/>
<stop offset="1" stop-color="#D130C4"/>
</linearGradient>
<linearGradient id="paint1_linear_7_2" x1="26.1069" y1="11.8084" x2="26.1069" y2="40" gradientUnits="userSpaceOnUse">
<stop stop-color="#7421CF"/>
<stop offset="0.395833" stop-color="#911BB6"/>
<stop offset="0.760417" stop-color="#971AB2"/>
<stop offset="1" stop-color="#D130C4"/>
</linearGradient>
<linearGradient id="paint2_linear_7_2" x1="7.01561" y1="27.7465" x2="7.01561" y2="38.2246" gradientUnits="userSpaceOnUse">
<stop stop-color="#3DB9D5"/>
<stop offset="1" stop-color="#8FF3FD"/>
</linearGradient>
<linearGradient id="paint3_linear_7_2" x1="32.7128" y1="1.50757" x2="32.7128" y2="11.9857" gradientUnits="userSpaceOnUse">
<stop stop-color="#3DB9D5"/>
<stop offset="1" stop-color="#8FF3FD"/>
</linearGradient>
<clipPath id="clip0_7_2">
<rect width="40" height="40" fill="white"/>
</clipPath>
</defs>
</svg>
